<?xml version="1.0" encoding="utf-8"?>
<!-- Generator: Adobe Illustrator 22.0.0, SVG Export Plug-In . SVG Version: 6.00 Build 0)  -->
<svg version="1.1" id="Layer_1" xmlns="http://www.w3.org/2000/svg" xmlns:xlink="http://www.w3.org/1999/xlink" x="0px" y="0px"
	 viewBox="0 0 512 512" style="enable-background:new 0 0 512 512;" xml:space="preserve">
<style type="text/css">
	.st0{fill:url(#SVGID_1_);}
	.st1{fill:none;}
	.st2{fill:#808080;}
	.st3{fill:#C1272D;}
	.st4{fill:#9B0813;}
	.st5{fill:#952D2D;}
</style>
<linearGradient id="SVGID_1_" gradientUnits="userSpaceOnUse" x1="4.8811" y1="508.4524" x2="510.9656" y2="2.3678">
	<stop  offset="0" style="stop-color:#1A1A1A"/>
	<stop  offset="1" style="stop-color:#000000"/>
</linearGradient>
<rect x="0.9" y="1.4" class="st0" width="511" height="511"/>
<g>
	<path class="st1" d="M419.4,431c-0.6,2.1-0.6,4.3,0,6.3c4.4,14.9,23.9,14.9,28.3,0c0.6-2.1,0.6-4.3,0-6.3
		C443.3,416.1,423.8,416.1,419.4,431z"/>
	<polygon class="st2" points="49.9,180.7 73,157.7 55.8,140.5 32.7,163.5 49.9,180.8 49.9,180.7 	"/>
	<polygon class="st2" points="139.9,56.3 157.1,73.5 180.2,50.5 180.2,50.5 180.2,50.5 163,33.3 	"/>
	<path class="st3" d="M456.1,387.6c-53.3-29.6-88.2-54.6-109.2-75.7l36.5,138.2c1.2,2.2,2.4,4.4,3.7,6.6c13.5,27,27,27,47.2,20.3
		c7.3-2.4,16-8.9,24.1-16.4c0.3-0.3,0.5-0.5,0.7-0.8c0.3-0.2,0.5-0.5,0.8-0.7c7.5-8.1,14-16.7,16.4-24.1
		C483.1,414.6,483.1,401.1,456.1,387.6z M447.7,437.3c-4.4,14.9-23.9,14.9-28.3,0c-0.6-2.1-0.6-4.3,0-6.3c4.4-14.9,23.9-14.9,28.3,0
		C448.3,433,448.3,435.2,447.7,437.3z"/>
	<path class="st4" d="M383.3,450.1c-48.7-86.3-84.7-121.8-111.1-128.4c-12.1-3-19.4-2.7-22.9-4.1c-2.5-1-3.2-3.5-2.1-7.4
		c2.2-6.2,13-17.2,19.5-24.4c0.2-0.3,0.5-0.5,0.7-0.8c2.8-3,5.5-5.9,8.2-8.6c0,0,0,0,0.1-0.1s0,0,0.1-0.1c2.7-2.7,5.5-5.4,8.6-8.2
		c0.3-0.2,0.5-0.5,0.8-0.7c7.2-6.5,18.2-17.2,24.4-19.5c3.9-1.2,6.5-0.4,7.4,2.1c1.4,3.5,1.1,10.9,4.1,22.9
		c2.8,11.2,10.8,24.1,25.8,39L383.3,450.1z"/>
	<path class="st1" d="M261.1,177.7l0.3-0.3l-0.2-0.2C261.2,177.3,261.1,177.5,261.1,177.7C261.1,177.6,261.1,177.7,261.1,177.7z"/>
	<rect x="51.4" y="182.3" transform="matrix(0.7071 -0.7071 0.7071 0.7071 -113.8099 89.7437)" class="st3" width="0" height="0"/>
	<rect x="181.7" y="52" transform="matrix(0.7071 -0.7071 0.7071 0.7071 16.4617 143.704)" class="st3" width="0" height="0"/>
	<path class="st1" d="M215.7,218.1c26.2-26.2,30.2-55.8,1.4-84.6l-59.7-59.7L140,56.4l-84.1,84.1L73.3,158l59.7,59.7
		C162.2,246.9,192.2,241.7,215.7,218.1z"/>
	<polygon class="st4" points="189,105.4 158.6,75 176.1,57.6 	"/>
	<path class="st4" d="M226.3,243.7l-5.5-5.5c-34.6,31-74,39.4-111.2,2.2l-58.1-58.1l23.1-23.1l58.5,58.5c28.7,28.7,58.4,23.3,82-0.3
		c1.1-1.1,2.2-2.3,3.3-3.4L226.3,243.7z"/>
	<path class="st3" d="M282.2,265.9l-16.9,16.9l-39-39l-8-29.8c23.2-25.3,25.9-53.3-1.1-80.4L189,105.4l-12.9-47.8l5.6-5.6l57.4,57.4
		c16.7,16.7,24,34.3,24,52.1c0,5.3-0.6,10.5-1.9,15.8h0c0,0.1-0.1,0.3-0.1,0.4c0,0,0,0.1,0,0.1c-3.6,14.8-11.9,29.4-23.7,43.4
		c0,0,0,0,0,0L282.2,265.9z"/>
	<polygon class="st3" points="51.4,182.3 74.3,159.4 74.5,159.2 74.5,159.2 51.4,182.3 	"/>
	<polygon class="st3" points="158.8,74.8 181.7,52 181.7,52 158.6,75 158.6,75 	"/>
	<path class="st3" d="M261.1,177.6c0-0.1,0.1-0.3,0.1-0.4l0,0C261.2,177.3,261.1,177.5,261.1,177.6z"/>
	<polygon class="st3" points="74.5,159.2 74.3,159.4 51.4,182.3 51.4,182.3 74.5,159.2 	"/>
	<polygon class="st3" points="158.8,74.8 158.6,75 158.6,75 181.7,52 181.7,52 	"/>
	<line class="st1" x1="265.3" y1="282.7" x2="265.3" y2="282.7"/>
	<line class="st1" x1="282.1" y1="265.8" x2="282.2" y2="265.9"/>
	<path class="st5" d="M265.3,282.7L265.3,282.7l2.2,2.2c2.8-3,5.5-5.9,8.2-8.6l0,0c0,0,0,0,0.1-0.1c0,0,0,0,0.1-0.1l0,0
		c2.7-2.7,5.5-5.4,8.6-8.2l-2.2-2.2l-0.1-0.1C275.8,271,267.4,280.2,265.3,282.7z"/>
</g>
<path class="st1" d="M256.4,256.9"/>
</svg>
